<svg width="23" height="22" viewBox="0 0 23 22" fill="none" xmlns="http://www.w3.org/2000/svg">
<path d="M18.9666 1.40039C20.1448 1.40039 21.0999 2.34243 21.0999 3.5045L21.0999 7.09632C21.0999 8.25839 20.1448 9.20043 18.9666 9.20043H15.7666C14.5884 9.20043 13.6332 8.25839 13.6332 7.09632L13.6332 3.5045C13.6332 2.34243 14.5884 1.40039 15.7666 1.40039L18.9666 1.40039Z" stroke="#B1924E" stroke-width="2" stroke-linecap="round" stroke-linejoin="round"/>
<path d="M4.03323 1.40039C2.85503 1.40039 1.8999 2.34243 1.8999 3.5045L1.89991 7.09632C1.89991 8.25839 2.85504 9.20043 4.03324 9.20043H7.23324C8.41145 9.20043 9.36658 8.25839 9.36658 7.09632L9.36657 3.5045C9.36657 2.34243 8.41144 1.40039 7.23323 1.40039L4.03323 1.40039Z" stroke="#B1924E" stroke-width="2" stroke-linecap="round" stroke-linejoin="round"/>
<path d="M18.9666 12.8004C20.1448 12.8004 21.0999 13.7425 21.0999 14.9045V18.4963C21.0999 19.6584 20.1448 20.6004 18.9666 20.6004H15.7666C14.5884 20.6004 13.6332 19.6584 13.6332 18.4963L13.6332 14.9045C13.6332 13.7425 14.5884 12.8004 15.7666 12.8004H18.9666Z" stroke="#B1924E" stroke-width="2" stroke-linecap="round" stroke-linejoin="round"/>
<path d="M4.03324 12.8004C2.85504 12.8004 1.89991 13.7425 1.89991 14.9045L1.89991 18.4963C1.89991 19.6584 2.85504 20.6004 4.03325 20.6004H7.23325C8.41145 20.6004 9.36658 19.6584 9.36658 18.4963L9.36657 14.9045C9.36657 13.7425 8.41145 12.8004 7.23324 12.8004H4.03324Z" stroke="#B1924E" stroke-width="2" stroke-linecap="round" stroke-linejoin="round"/>
</svg>
