<svg width="18" height="18" viewBox="0 0 18 18" fill="none" xmlns="http://www.w3.org/2000/svg">
<path d="M14.5998 1.80078C15.4835 1.80078 16.1998 2.50731 16.1998 3.37886L16.1998 6.07273C16.1998 6.94428 15.4835 7.65081 14.5998 7.65081H12.1998C11.3162 7.65081 10.5998 6.94428 10.5998 6.07273L10.5998 3.37886C10.5998 2.50731 11.3161 1.80078 12.1998 1.80078L14.5998 1.80078Z" stroke="#D8D8D8" stroke-width="2" stroke-linecap="round" stroke-linejoin="round"/>
<path d="M3.3998 1.80078C2.51615 1.80078 1.7998 2.50731 1.7998 3.37886L1.79981 6.07273C1.79981 6.94428 2.51616 7.65081 3.39981 7.65081H5.79981C6.68347 7.65081 7.39981 6.94428 7.39981 6.07273L7.3998 3.37886C7.3998 2.50731 6.68346 1.80078 5.7998 1.80078L3.3998 1.80078Z" stroke="#D8D8D8" stroke-width="2" stroke-linecap="round" stroke-linejoin="round"/>
<path d="M14.5998 10.3508C15.4835 10.3508 16.1998 11.0573 16.1998 11.9289V14.6227C16.1998 15.4943 15.4835 16.2008 14.5998 16.2008H12.1998C11.3162 16.2008 10.5998 15.4943 10.5998 14.6227L10.5998 11.9289C10.5998 11.0573 11.3162 10.3508 12.1998 10.3508H14.5998Z" stroke="#D8D8D8" stroke-width="2" stroke-linecap="round" stroke-linejoin="round"/>
<path d="M3.39981 10.3508C2.51615 10.3508 1.79981 11.0573 1.79981 11.9289L1.79981 14.6227C1.79981 15.4943 2.51616 16.2008 3.39981 16.2008H5.79981C6.68347 16.2008 7.39981 15.4943 7.39981 14.6227L7.39981 11.9289C7.39981 11.0573 6.68347 10.3508 5.79981 10.3508H3.39981Z" stroke="#D8D8D8" stroke-width="2" stroke-linecap="round" stroke-linejoin="round"/>
</svg>
