<svg width="22" height="22" viewBox="0 0 22 22" fill="none" xmlns="http://www.w3.org/2000/svg">
<path d="M1.40039 8.24418C1.40039 7.85016 1.60094 7.4805 1.9386 7.25215L10.2586 1.62564C10.7027 1.32531 11.2981 1.32531 11.7422 1.62564L20.0622 7.25216C20.3998 7.4805 20.6004 7.85016 20.6004 8.24418V18.7745C20.6004 19.7829 19.7408 20.6004 18.6804 20.6004H3.32039C2.26 20.6004 1.40039 19.7829 1.40039 18.7745V8.24418Z" stroke="#545454" stroke-width="2"/>
<path d="M13.4004 12.2004C13.4004 13.5259 12.3259 14.6004 11.0004 14.6004C9.67491 14.6004 8.60039 13.5259 8.60039 12.2004C8.60039 10.8749 9.67491 9.80039 11.0004 9.80039C12.3259 9.80039 13.4004 10.8749 13.4004 12.2004Z" stroke="#545454" stroke-width="2"/>
</svg>
