<svg width="24" height="24" viewBox="0 0 24 24" fill="none" xmlns="http://www.w3.org/2000/svg">
<path d="M5.9999 6.00039V10.2004M17.9999 6.00039V10.2004M17.3999 14.4004H19.7999C20.794 14.4004 21.5999 13.5945 21.5999 12.6004V4.20039C21.5999 3.20628 20.794 2.40039 19.7999 2.40039H4.1999C3.20579 2.40039 2.3999 3.20628 2.3999 4.20039V12.6004C2.3999 13.5945 3.20579 14.4004 4.1999 14.4004H6.5999M8.60484 18.2061L11.9989 21.6002M11.9989 21.6002L15.1644 18.4347M11.9989 21.6002L11.9991 14.6578M14.3999 8.40039C14.3999 9.72588 13.3254 10.8004 11.9999 10.8004C10.6744 10.8004 9.5999 9.72588 9.5999 8.40039C9.5999 7.07491 10.6744 6.00039 11.9999 6.00039C13.3254 6.00039 14.3999 7.07491 14.3999 8.40039Z" stroke="#C74D2E" stroke-width="2" stroke-linecap="round" stroke-linejoin="round"/>
</svg>
